<svg xmlns="http://www.w3.org/2000/svg" xmlns:xlink="http://www.w3.org/1999/xlink" width="225" height="50" viewBox="0 0 225 50"><defs><clipPath id="b"><rect width="225" height="50"/></clipPath></defs><g id="a" clip-path="url(#b)"><rect width="217" height="40" rx="16" transform="translate(4 5)" fill="#0077b5"/><path d="M4.15-5.518l1.982-6.5h.049l1.973,6.5ZM9.824,0h1.816L7.1-14.092H5.264L.723,0H2.471L3.7-4.043H8.6Zm13.35,0V-1.377h-3.5V-14.756H14.424v1.377h3.594v12H14.395V0Zm7.92-13.193a1.343,1.343,0,0,0,1.377-1.367,1.341,1.341,0,0,0-1.377-1.357,1.341,1.341,0,0,0-1.377,1.357A1.343,1.343,0,0,0,31.094-13.193ZM35.537,0V-1.377H32.031V-10.6H26.787v1.377h3.6v7.842H26.758V0Zm7.295-7.891V-10.6H38.877v1.328H41.23v7.939H39.092V0h7.041V-1.328H42.852V-4.746c0-2.7,1.387-4.316,3.73-4.316a5.605,5.605,0,0,1,1.748.293v-1.865a4.359,4.359,0,0,0-1.533-.234,3.462,3.462,0,0,0-3.75,2.979Zm12.92-1.475c1.709,0,2.744,1.221,2.744,3.242H52.92C52.92-8.154,53.984-9.365,55.752-9.365ZM58.5-2.734A2.512,2.512,0,0,1,55.879-1.24,2.882,2.882,0,0,1,52.92-4.434v-.43h7.217V-5.9c0-3.066-1.621-4.893-4.375-4.893a4.294,4.294,0,0,0-4.482,4.629V-4.57c0,3.018,1.689,4.766,4.6,4.766,2.227,0,3.906-1.182,4.229-2.93ZM63.877,0h8.242V-1.426H65.957v-.127l6.123-7.8V-10.6H63.906V-9.17H70.1v.127L63.877-1.172Zm15.41.186a3.257,3.257,0,0,0,3.2-1.768h.166V.01h1.582V-7.246c0-2.207-1.426-3.477-3.916-3.477-2.168,0-3.809,1.162-4,2.861h1.631A2.215,2.215,0,0,1,80.3-9.287c1.475,0,2.285.732,2.285,2.061v.957l-2.91.146c-2.412.127-3.76,1.24-3.76,3.115A3.1,3.1,0,0,0,79.287.186Zm.479-1.455c-1.338,0-2.168-.684-2.168-1.8s.781-1.738,2.266-1.807L82.588-5v1.25A2.612,2.612,0,0,1,79.766-1.27Zm23.291-4.248,1.982-6.5h.049l1.973,6.5ZM108.73,0h1.816l-4.541-14.092H104.17L99.629,0h1.748l1.23-4.043h4.9Zm4.863-7.734c0,1.5.947,2.471,2.861,2.91l1.572.361c1.348.3,1.865.752,1.865,1.592,0,1.016-.918,1.67-2.363,1.67-1.367,0-2.3-.566-2.549-1.543h-1.689C113.477-.928,115.068.2,117.471.2c2.51,0,4.141-1.27,4.141-3.223,0-1.533-.937-2.432-3-2.9l-1.494-.342c-1.328-.293-1.875-.752-1.875-1.562,0-.967.869-1.592,2.217-1.592a2.129,2.129,0,0,1,2.324,1.494h1.6c-.2-1.768-1.689-2.871-3.9-2.871C115.156-10.8,113.594-9.57,113.594-7.734ZM128.74.186a3.257,3.257,0,0,0,3.2-1.768h.166V.01h1.582V-7.246c0-2.207-1.426-3.477-3.916-3.477-2.168,0-3.809,1.162-4,2.861H127.4a2.215,2.215,0,0,1,2.354-1.426c1.475,0,2.285.732,2.285,2.061v.957l-2.91.146c-2.412.127-3.76,1.24-3.76,3.115A3.1,3.1,0,0,0,128.74.186Zm.479-1.455c-1.338,0-2.168-.684-2.168-1.8s.781-1.738,2.266-1.807L132.041-5v1.25A2.612,2.612,0,0,1,129.219-1.27Zm9.912-4.8c0-1.953,1.123-3.2,2.871-3.2s2.861,1.25,2.861,3.2v1.523c0,1.963-1.123,3.213-2.861,3.213s-2.871-1.26-2.871-3.213Zm5.742,4.453V0H146.5V-14.756h-1.689v5.8h-.176a3.1,3.1,0,0,0-3.125-1.816c-2.451,0-4.053,1.768-4.053,4.482v1.973c0,2.725,1.6,4.492,4.053,4.492a3.237,3.237,0,0,0,3.174-1.8Zm9.854-11.572a1.343,1.343,0,0,0,1.377-1.367,1.341,1.341,0,0,0-1.377-1.357,1.341,1.341,0,0,0-1.377,1.357A1.343,1.343,0,0,0,154.727-13.193ZM159.17,0V-1.377h-3.506V-10.6H150.42v1.377h3.6v7.842h-3.633V0Z" transform="translate(48 33)" fill="#fff"/><path d="M20.179,0H1.568A1.568,1.568,0,0,0,0,1.568V20.179a1.568,1.568,0,0,0,1.568,1.568H20.179a1.568,1.568,0,0,0,1.568-1.568V1.568A1.568,1.568,0,0,0,20.179,0ZM7.714,16.438H5.066V8.471H7.714ZM6.39,7.383H6.373A1.38,1.38,0,1,1,6.408,4.63,1.381,1.381,0,1,1,6.39,7.383Zm10.873,9.055H14.615V12.176c0-1.071-.383-1.8-1.342-1.8a1.45,1.45,0,0,0-1.359.968,1.814,1.814,0,0,0-.087.646v4.449H9.18s.035-7.22,0-7.967h2.648V9.6a2.629,2.629,0,0,1,2.387-1.315c1.742,0,3.049,1.139,3.049,3.586Zm0,0" transform="translate(17.126 14.126)" fill="#fff"/></g></svg>