<svg xmlns="http://www.w3.org/2000/svg" xmlns:xlink="http://www.w3.org/1999/xlink" width="225" height="50" viewBox="0 0 225 50"><defs><clipPath id="b"><rect width="225" height="50"/></clipPath></defs><g id="a" clip-path="url(#b)"><rect width="217" height="40" rx="16" transform="translate(4 5)" fill="#0077b5"/><text transform="translate(48 32)" fill="#fff" font-size="20" font-family="SFMono-Regular, SF Mono"><tspan x="0" y="0">Alireza Asadi</tspan></text><path d="M20.179,0H1.568A1.568,1.568,0,0,0,0,1.568V20.179a1.568,1.568,0,0,0,1.568,1.568H20.179a1.568,1.568,0,0,0,1.568-1.568V1.568A1.568,1.568,0,0,0,20.179,0ZM7.714,16.438H5.066V8.471H7.714ZM6.39,7.383H6.373A1.38,1.38,0,1,1,6.408,4.63,1.381,1.381,0,1,1,6.39,7.383Zm10.873,9.055H14.615V12.176c0-1.071-.383-1.8-1.342-1.8a1.45,1.45,0,0,0-1.359.968,1.814,1.814,0,0,0-.087.646v4.449H9.18s.035-7.22,0-7.967h2.648V9.6a2.629,2.629,0,0,1,2.387-1.315c1.742,0,3.049,1.139,3.049,3.586Zm0,0" transform="translate(17.126 14.126)" fill="#fff"/></g></svg>