<svg xmlns="http://www.w3.org/2000/svg" xmlns:xlink="http://www.w3.org/1999/xlink" width="200" height="50" viewBox="0 0 200 50"><defs><clipPath id="b"><rect width="200" height="50"/></clipPath></defs><g id="a" clip-path="url(#b)"><rect width="192" height="40" rx="16" transform="translate(4 5)" fill="#1da1f2"/><path d="M24.115,50.32a10.307,10.307,0,0,1-2.849.781,4.916,4.916,0,0,0,2.175-2.733,9.88,9.88,0,0,1-3.135,1.2,4.943,4.943,0,0,0-8.552,3.381,5.091,5.091,0,0,0,.115,1.127A13.993,13.993,0,0,1,1.679,48.9,4.945,4.945,0,0,0,3.2,55.509,4.882,4.882,0,0,1,.965,54.9v.054a4.966,4.966,0,0,0,3.961,4.858,4.934,4.934,0,0,1-1.3.163,4.371,4.371,0,0,1-.936-.084,4.991,4.991,0,0,0,4.62,3.444,9.934,9.934,0,0,1-6.13,2.109A9.261,9.261,0,0,1,0,65.375a13.918,13.918,0,0,0,7.584,2.219A13.974,13.974,0,0,0,21.655,53.525c0-.219-.008-.43-.018-.639A9.862,9.862,0,0,0,24.115,50.32Z" transform="translate(15.943 -32.797)" fill="#fff"/><text transform="translate(48 32)" fill="#fff" font-size="20" font-family="SFMono-Regular, SF Mono"><tspan x="0" y="0">@MrAlirezaa</tspan></text></g></svg>