<svg xmlns="http://www.w3.org/2000/svg" xmlns:xlink="http://www.w3.org/1999/xlink" width="200" height="50" viewBox="0 0 200 50"><defs><clipPath id="b"><rect width="200" height="50"/></clipPath></defs><g id="a" clip-path="url(#b)"><rect width="192" height="40" rx="16" transform="translate(4 5)" fill="#1da1f2"/><path d="M24.115,50.32a10.307,10.307,0,0,1-2.849.781,4.916,4.916,0,0,0,2.175-2.733,9.88,9.88,0,0,1-3.135,1.2,4.943,4.943,0,0,0-8.552,3.381,5.091,5.091,0,0,0,.115,1.127A13.993,13.993,0,0,1,1.679,48.9,4.945,4.945,0,0,0,3.2,55.509,4.882,4.882,0,0,1,.965,54.9v.054a4.966,4.966,0,0,0,3.961,4.858,4.934,4.934,0,0,1-1.3.163,4.371,4.371,0,0,1-.936-.084,4.991,4.991,0,0,0,4.62,3.444,9.934,9.934,0,0,1-6.13,2.109A9.261,9.261,0,0,1,0,65.375a13.918,13.918,0,0,0,7.584,2.219A13.974,13.974,0,0,0,21.655,53.525c0-.219-.008-.43-.018-.639A9.862,9.862,0,0,0,24.115,50.32Z" transform="translate(15.943 -32.797)" fill="#fff"/><path d="M6.475,1.934a6.485,6.485,0,0,0,2.393-.381V.4A6.013,6.013,0,0,1,6.65.752C3.682.752,2.324-1.2,2.324-5.527V-7.041c0-4.258,1.26-6.182,3.994-6.182,2.559,0,3.887,1.7,3.887,5.029v2.744c0,.977-.332,1.338-1.23,1.338h-1.6V-8.164c0-.732-.371-1.191-.937-1.191s-.947.459-.947,1.191V-4.17A1.105,1.105,0,0,0,6.68-2.988H9.17c1.406,0,2.227-.928,2.227-2.5v-2.92c0-3.857-1.826-6-5.068-6-3.408,0-5.215,2.52-5.215,7.275V-5.3C1.113-.547,2.959,1.934,6.475,1.934Zm8.4-7.334-.1-5.713H14.9l2.969,7.8h1.348l2.969-7.8h.127l-.1,5.713V0H23.76V-14.092h-1.9L18.613-5.371h-.127l-3.252-8.721h-1.9V0h1.543Zm15.6-2.49V-10.6H26.514v1.328h2.354v7.939H26.729V0H33.77V-1.328H30.488V-4.746c0-2.7,1.387-4.316,3.73-4.316a5.605,5.605,0,0,1,1.748.293v-1.865a4.359,4.359,0,0,0-1.533-.234,3.462,3.462,0,0,0-3.75,2.979ZM41.24-5.518l1.982-6.5h.049l1.973,6.5ZM46.914,0H48.73L44.189-14.092H42.354L37.813,0h1.748l1.23-4.043h4.9Zm13.35,0V-1.377h-3.5V-14.756H51.514v1.377h3.594v12H51.484V0Zm7.92-13.193a1.343,1.343,0,0,0,1.377-1.367,1.341,1.341,0,0,0-1.377-1.357,1.341,1.341,0,0,0-1.377,1.357A1.343,1.343,0,0,0,68.184-13.193ZM72.627,0V-1.377H69.121V-10.6H63.877v1.377h3.6v7.842H63.848V0Zm7.295-7.891V-10.6H75.967v1.328H78.32v7.939H76.182V0h7.041V-1.328H79.941V-4.746c0-2.7,1.387-4.316,3.73-4.316a5.605,5.605,0,0,1,1.748.293v-1.865a4.359,4.359,0,0,0-1.533-.234,3.462,3.462,0,0,0-3.75,2.979Zm12.92-1.475c1.709,0,2.744,1.221,2.744,3.242H90.01C90.01-8.154,91.074-9.365,92.842-9.365Zm2.744,6.631A2.512,2.512,0,0,1,92.969-1.24,2.882,2.882,0,0,1,90.01-4.434v-.43h7.217V-5.9c0-3.066-1.621-4.893-4.375-4.893a4.294,4.294,0,0,0-4.482,4.629V-4.57c0,3.018,1.689,4.766,4.6,4.766C95.2.2,96.875-.986,97.2-2.734ZM100.967,0h8.242V-1.426h-6.162v-.127l6.123-7.8V-10.6H101V-9.17h6.191v.127l-6.221,7.871Zm15.41.186a3.257,3.257,0,0,0,3.2-1.768h.166V.01h1.582V-7.246c0-2.207-1.426-3.477-3.916-3.477-2.168,0-3.809,1.162-4,2.861h1.631a2.215,2.215,0,0,1,2.354-1.426c1.475,0,2.285.732,2.285,2.061v.957l-2.91.146c-2.412.127-3.76,1.24-3.76,3.115A3.1,3.1,0,0,0,116.377.186Zm.479-1.455c-1.338,0-2.168-.684-2.168-1.8s.781-1.738,2.266-1.807L119.678-5v1.25A2.612,2.612,0,0,1,116.855-1.27ZM128.74.186a3.257,3.257,0,0,0,3.2-1.768h.166V.01h1.582V-7.246c0-2.207-1.426-3.477-3.916-3.477-2.168,0-3.809,1.162-4,2.861H127.4a2.215,2.215,0,0,1,2.354-1.426c1.475,0,2.285.732,2.285,2.061v.957l-2.91.146c-2.412.127-3.76,1.24-3.76,3.115A3.1,3.1,0,0,0,128.74.186Zm.479-1.455c-1.338,0-2.168-.684-2.168-1.8s.781-1.738,2.266-1.807L132.041-5v1.25A2.612,2.612,0,0,1,129.219-1.27Z" transform="translate(48 32)" fill="#fff"/></g></svg>